<?xml version="1.0" encoding="utf-8"?>
<!-- Generator: Adobe Illustrator 23.0.6, SVG Export Plug-In . SVG Version: 6.00 Build 0)  -->
<svg version="1.1" id="Layer_1" xmlns="http://www.w3.org/2000/svg" xmlns:xlink="http://www.w3.org/1999/xlink" x="0px" y="0px"
	 viewBox="0 0 7172.9 3679.2" style="enable-background:new 0 0 7172.9 3679.2;" xml:space="preserve">
<style type="text/css">
	.st0{fill:#00AA13;}
</style>
<title>Gojek_LogoArtboard 3</title>
<g>
	<path class="st0" d="M1120.8,1922.9c0-140.8,114.2-255,255-255s255,114.2,255,255s-114.1,255-255,255S1120.8,2063.7,1120.8,1922.9"
		/>
	<path class="st0" d="M1375.7,1243c-375.5,0-679.9,304.4-679.9,679.9c0,281.9,170.2,522.5,417.4,627.2c15.6,6.4,32.3,9.8,49.2,9.9
		c70.4,0,127.5-57.1,127.5-127.5c0-51.4-30.9-97.7-78.2-117.6v-0.1c-153.2-64.2-260.9-215.5-260.9-392c0-234.7,190.2-425,425-425
		s425,190.3,425,425c0,176.5-107.7,327.8-260.9,392v0.1c-64.9,27.3-95.4,102-68.1,166.9c19.8,47.2,66,78,117.2,78.1
		c16.9-0.1,33.6-3.5,49.2-9.9c247.1-104.7,417.4-345.4,417.4-627.2C2055.6,1547.3,1751.2,1242.9,1375.7,1243"/>
	<g>
		<path d="M2440.7,2419.9l160.4-133.2c83.2,98.4,151.3,131.7,269.4,131.7c124.1,0,217.9-80.2,217.9-189.2v-57.5h-3
			c-56,62-148.3,96.9-258.8,96.9c-246.7,0-431.3-178.6-431.3-422.2c0-234.6,180.1-416.2,423.7-416.2c113.5,0,208.8,33.3,266.4,93.8
			h3v-78.7h214.9v780.9c0,227-178.6,384.4-432.8,384.4C2685.9,2610.6,2536,2544,2440.7,2419.9z M3079.4,1894.8V1801
			c0-92.3-101.4-174-217.9-174c-146.8,0-242.1,89.3-242.1,219.4c0,140.7,89.3,225.5,233.1,225.5
			C2979.5,2071.8,3079.4,1993.2,3079.4,1894.8z"/>
		<path d="M3418.8,1846.4c0-239.1,189.2-423.7,452.5-423.7c264.8,0,452.5,184.6,452.5,423.7s-187.7,423.7-452.5,423.7
			C3607.9,2270.1,3418.8,2085.5,3418.8,1846.4z M4099.8,1846.4c0-130.2-89.3-227-228.5-227s-228.5,96.9-228.5,227
			s89.3,227,228.5,227C4010.5,2073.4,4099.8,1976.5,4099.8,1846.4z"/>
		<path d="M4230.3,2354.9h121.1c65.1,0,87.8-24.2,87.8-81.7v-827.8h224v830.8c0,198.3-80.2,283-293.6,283h-139.2L4230.3,2354.9
			L4230.3,2354.9z"/>
		<path d="M4778.6,1847.9c0-246.7,181.6-425.3,435.9-425.3c269.4,0,435.9,190.7,435.9,431.3v63.6h-650.8c7.6,104.4,92.3,171,227,171
			c99.9,0,169.5-39.3,246.7-119.6l139.2,139.2c-92.3,101.4-211.9,161.9-384.4,161.9C4946.6,2270.1,4778.6,2102.1,4778.6,1847.9z
			 M5432.4,1760.1c-10.6-93.8-93.8-155.9-213.4-155.9c-121.1,0-204.3,62-216.4,155.9H5432.4z"/>
		<path d="M5765.7,1210.6h224v557.1h3l361.7-322.4h313.3l-376.8,326.9l392,475.2H6409l-267.9-339h-3L5989.7,2034v213.4h-224V1210.6z
			"/>
	</g>
</g>
</svg>
