<?xml version="1.0" encoding="utf-8"?>
<!-- Generator: Adobe Illustrator 24.1.2, SVG Export Plug-In . SVG Version: 6.00 Build 0)  -->
<svg version="1.1" id="Layer_1" xmlns="http://www.w3.org/2000/svg" xmlns:xlink="http://www.w3.org/1999/xlink" x="0px" y="0px"
	 viewBox="0 0 3195.1 3378.3" style="enable-background:new 0 0 3195.1 3378.3;" xml:space="preserve">
<style type="text/css">
	.st0{fill:#00AA13;}
</style>
<path class="st0" d="M1293,1182.9c0-168.1,136.3-304.4,304.4-304.4s304.4,136.3,304.4,304.4s-136.3,304.4-304.4,304.4
	S1293,1351.1,1293,1182.9"/>
<path class="st0" d="M1597.4,371.3c-448.3,0-811.7,363.4-811.7,811.7c0,336.5,203.2,623.8,498.3,748.8c18.7,7.7,38.6,11.7,58.8,11.8
	c84.1,0,152.2-68.2,152.2-152.2c0-61.3-36.8-116.7-93.4-140.4v-0.1c-182.9-76.6-311.4-257.2-311.4-467.9
	c0-280.2,227.1-507.3,507.3-507.3s507.3,227.1,507.3,507.3c0,210.7-128.5,391.3-311.4,467.9v0.1c-77.5,32.5-114,121.8-81.5,199.3
	c23.7,56.5,79.1,93.3,140.4,93.3c20.2-0.1,40.1-4.1,58.8-11.8c295-125,498.3-412.3,498.3-748.8
	C2409.1,734.6,2045.7,371.2,1597.4,371.3"/>
<path d="M377.6,2896.2l93.3-77.4c48.4,57.2,88,76.6,156.6,76.6c72.1,0,126.7-46.6,126.7-110V2752h-1.8
	c-32.6,36.1-86.2,56.3-150.5,56.3c-143.4,0-250.8-103.8-250.8-245.5c0-136.4,104.7-242,246.4-242c66,0,121.4,19.4,154.9,54.6h1.8
	v-45.7h125v454c0,132-103.8,223.5-251.7,223.5C520.1,3007,433,2968.3,377.6,2896.2z M748.9,2590.8v-54.6
	c0-53.7-59-101.2-126.7-101.2c-85.3,0-140.8,51.9-140.8,127.6c0,81.8,51.9,131.1,135.5,131.1C690.8,2693.8,748.9,2648,748.9,2590.8
	L748.9,2590.8z"/>
<path d="M946.2,2562.7c0-139,110-246.4,263.1-246.4c154,0,263.1,107.4,263.1,246.4S1363.3,2809,1209.3,2809
	C1056.2,2809,946.2,2701.7,946.2,2562.7z M1342.2,2562.7c0-75.7-51.9-132-132.9-132s-132.9,56.3-132.9,132s51.9,132,132.9,132
	S1342.2,2638.3,1342.2,2562.7L1342.2,2562.7z"/>
<path d="M1418.1,2858.3h70.4c37.8,0,51-14.1,51-47.5v-481.3h130.2v483c0,115.3-46.6,164.5-170.7,164.5h-81L1418.1,2858.3z"/>
<path d="M1736.8,2563.5c0-143.4,105.6-247.2,253.4-247.2c156.6,0,253.4,110.9,253.4,250.8v36.9h-378.3c4.4,60.7,53.7,99.4,132,99.4
	c58.1,0,98.5-22.9,143.4-69.5l80.9,80.9c-53.7,59-123.2,94.1-223.5,94.1C1834.5,2809,1736.8,2711.4,1736.8,2563.5z M2116.9,2512.5
	c-6.2-54.6-54.6-90.6-124.1-90.6c-70.4,0-118.8,36.1-125.8,90.6H2116.9z"/>
<path d="M2310.8,2193H2441v323.9h1.8l210.3-187.4h182.1l-219,190l227.9,276.3h-159.3L2529,2598.7h-1.8l-86.2,73v124.1h-130.2V2193z"
	/>
</svg>
